<svg width="48" height="41" viewBox="0 0 48 41" fill="none" xmlns="http://www.w3.org/2000/svg">
<path fill-rule="evenodd" clip-rule="evenodd" d="M22.9112 0.866043C21.9043 1.19472 21.1135 1.89451 20.6626 2.85596C20.4423 3.32586 20.4067 3.53041 20.4067 4.32596C20.4067 5.17222 20.4333 5.30422 20.7223 5.89193C21.1864 6.83541 21.9481 7.46362 23.1019 7.85446C23.2573 7.9072 23.2719 8.10757 23.2719 10.1976V12.4831H16.1379C8.73804 12.4831 8.37071 12.5008 7.59312 12.8943C6.9616 13.2139 6.23005 13.9815 5.92265 14.6469L5.64351 15.2512L5.61359 17.9417C5.58057 20.9202 5.64691 20.65 4.91506 20.7887C4.72809 20.8242 4.20361 21.0305 3.74955 21.2472C2.27362 21.9514 1.11588 23.3647 0.685027 24.9882C0.603149 25.2968 0.535744 25.9591 0.534384 26.4692C0.528945 28.5343 1.56878 30.3532 3.38212 31.4501C3.9708 31.8062 5.03579 32.1997 5.41089 32.1997C5.58678 32.1997 5.59494 32.3111 5.59494 34.7148C5.59494 36.9506 5.61631 37.2983 5.78754 37.8471C6.02006 38.5919 6.54542 39.3051 7.1848 39.7438C8.06942 40.3507 8.19112 40.3631 12.9702 40.3351L17.2778 40.3097L17.4725 40.0488C17.6412 39.8228 17.6515 39.7498 17.5492 39.5029C17.4843 39.3462 17.3228 39.1686 17.1903 39.1083C17.0237 39.0323 15.6734 38.9978 12.802 38.9964C8.17607 38.994 8.22541 39.0006 7.5667 38.3062C6.91566 37.62 6.95451 38.3752 6.95684 26.4481C6.95898 15.7788 6.96151 15.6341 7.15712 15.2026C7.40362 14.6589 7.66956 14.3692 8.16878 14.1005L8.55729 13.8914L23.7427 13.866C33.7356 13.8492 39.0526 13.874 39.2921 13.9385C39.8874 14.0988 40.4505 14.5734 40.7122 15.1356L40.9469 15.6397L40.9474 26.3721C40.9476 33.6415 40.9145 37.2243 40.8447 37.4757C40.788 37.6797 40.5839 38.0213 40.3912 38.2347C39.7591 38.9343 39.716 38.9443 37.098 38.9985C34.9676 39.0426 34.7339 39.0641 34.5484 39.2321C34.2894 39.4669 34.2846 39.9101 34.5385 40.164C34.7217 40.3472 34.8622 40.3583 36.9975 40.3583C39.5287 40.3583 39.9166 40.2941 40.7213 39.742C41.3582 39.305 41.8838 38.5911 42.116 37.8471C42.2872 37.2983 42.3086 36.9506 42.3086 34.7148C42.3086 32.3111 42.3167 32.1997 42.4926 32.1997C42.8677 32.1997 43.9327 31.8062 44.5214 31.4501C46.3348 30.3532 47.3746 28.5343 47.3692 26.4692C47.3677 25.9486 47.3004 25.2965 47.2144 24.9727C46.794 23.3877 45.5993 21.9378 44.139 21.2404C43.6932 21.0275 43.1754 20.8242 42.9885 20.7887C42.2597 20.6506 42.3255 20.9194 42.2911 17.9421L42.26 15.2512L41.9809 14.6469C41.6735 13.9815 40.9419 13.2139 40.3104 12.8943C39.5328 12.5008 39.1655 12.4831 31.7657 12.4831H24.6317V10.1976C24.6317 8.10757 24.6462 7.9072 24.8016 7.85446C25.9555 7.46362 26.7171 6.83541 27.1812 5.89193C27.4704 5.30393 27.4969 5.17252 27.4969 4.32373C27.4969 3.47465 27.4704 3.34363 27.1812 2.75631C26.573 1.52126 25.4792 0.813789 24.0975 0.76173C23.6224 0.743859 23.1615 0.784457 22.9112 0.866043ZM24.8745 2.27311C26.0689 2.821 26.5328 4.21854 25.9144 5.4061C25.1032 6.96362 22.8003 6.96362 21.9891 5.4061C21.184 3.85986 22.2301 2.09488 23.9518 2.09488C24.264 2.09488 24.6474 2.16889 24.8745 2.27311ZM15.5363 19.9657C14.5632 20.1582 13.655 20.8798 13.2336 21.7953C13.0746 22.1407 13.0267 22.4346 13.0261 23.0698C13.0252 23.7771 13.0637 23.9742 13.2951 24.4452C13.8081 25.4899 14.7164 26.0863 15.9026 26.1572C17.2894 26.24 18.3292 25.6547 18.9173 24.4601C19.1976 23.8907 19.2411 23.7043 19.2405 23.0719C19.2394 21.8122 18.607 20.7866 17.5088 20.2632C16.8488 19.9487 16.1529 19.8437 15.5363 19.9657ZM31.1708 19.9634C30.0027 20.2024 29.1017 21.0527 28.7558 22.2427C28.3055 23.7915 29.2214 25.5243 30.7606 26.0355C31.4388 26.2607 32.5812 26.1955 33.1588 25.8983C33.7925 25.5725 34.3093 25.0544 34.6084 24.4452C34.9667 23.7155 34.9938 22.4993 34.6676 21.7901C34.0682 20.4873 32.532 19.6848 31.1708 19.9634ZM16.9965 21.4965C17.991 22.0793 18.2136 23.3611 17.473 24.2413C17.1254 24.6544 16.701 24.8459 16.1331 24.8459C14.7657 24.8459 13.9323 23.4799 14.5374 22.23C14.9599 21.3572 16.152 21.0016 16.9965 21.4965ZM32.3144 21.3383C32.8195 21.5125 33.1598 21.8039 33.3733 22.2448C33.7451 23.0129 33.5816 23.8497 32.9517 24.4028C31.9933 25.2442 30.6207 24.9163 30.1239 23.7272C29.7313 22.7875 30.2208 21.7162 31.2027 21.3661C31.6693 21.1998 31.8963 21.1941 32.3144 21.3383ZM5.59494 26.4328V30.8642L5.27928 30.8028C4.66263 30.6829 3.70497 30.1292 3.14164 29.5668C2.13415 28.5609 1.66746 27.1418 1.89376 25.7718C2.17795 24.0507 3.37979 22.6717 5.06075 22.1378C5.27443 22.0699 5.48208 22.0115 5.5221 22.008C5.56211 22.0044 5.59494 23.9955 5.59494 26.4328ZM43.5342 22.437C44.83 23.0363 45.7664 24.2977 46.0098 25.7718C46.2371 27.1486 45.7631 28.5608 44.7232 29.6043C44.1644 30.1652 43.2779 30.6706 42.6243 30.8012L42.3086 30.8642V26.431V21.9978L42.5757 22.0574C42.7225 22.0902 43.154 22.261 43.5342 22.437ZM18.4598 33.118C18.3287 33.2491 18.2213 33.4478 18.2213 33.5595C18.2213 33.6711 18.3287 33.8698 18.4598 34.0009L18.6981 34.2393H23.9518H29.2054L29.4438 34.0009C29.5749 33.8698 29.6822 33.6711 29.6822 33.5595C29.6822 33.4478 29.5749 33.2491 29.4438 33.118L29.2054 32.8796H23.9518H18.6981L18.4598 33.118ZM21.3164 39.1411C20.9644 39.3382 20.8763 39.7398 21.115 40.0598C21.2966 40.3033 21.334 40.3104 22.5752 40.3368C23.7457 40.3617 23.865 40.3479 24.0461 40.1668C24.3025 39.9104 24.2991 39.4678 24.039 39.2321C23.8668 39.076 23.658 39.0432 22.7035 39.0224C21.8502 39.0039 21.5093 39.033 21.3164 39.1411ZM28.1282 39.0634C27.6319 39.2595 27.4854 39.8126 27.8368 40.164C28.0112 40.3384 28.1605 40.3583 29.2937 40.3583C30.4269 40.3583 30.5763 40.3384 30.7506 40.164C31.0045 39.9101 30.9997 39.4669 30.7407 39.2321C30.5678 39.0754 30.3633 39.044 29.4052 39.0265C28.783 39.0151 28.2083 39.0317 28.1282 39.0634Z" fill="white"/>
</svg>
