<svg width="21" height="21" viewBox="0 0 21 21" fill="none" xmlns="http://www.w3.org/2000/svg">
<path fill-rule="evenodd" clip-rule="evenodd" d="M1.41487 0.0969314C1.00782 0.176794 0.653266 0.453929 0.476656 0.830189C0.391481 1.01164 0.372936 1.10717 0.372936 1.36453C0.372858 1.96913 0.107982 1.6689 4.57714 6.13018L8.53009 10.0762L4.54537 14.0617C1.30716 17.3007 0.543481 18.0839 0.469027 18.2427C0.338349 18.5214 0.335454 19.0203 0.462923 19.2976C0.576816 19.5454 0.825806 19.8029 1.07714 19.9327C1.36057 20.0791 1.8107 20.0995 2.13352 19.9806C2.3604 19.897 2.50207 19.7606 6.36887 15.9041L10.3695 11.9142L14.3503 15.8838C17.5478 19.0722 18.3697 19.8717 18.5268 19.9467C18.691 20.025 18.7823 20.0399 19.0942 20.0394C19.4197 20.0389 19.4903 20.026 19.663 19.9355C19.9027 19.8098 20.1671 19.5315 20.2811 19.2849C20.403 19.021 20.3975 18.5155 20.2696 18.2427C20.1951 18.0839 19.4315 17.3007 16.1932 14.0617L12.2085 10.0762L16.1615 6.13018C20.6306 1.6689 20.3658 1.96913 20.3657 1.36453C20.3657 1.10858 20.3471 1.01176 20.2642 0.836246C19.9474 0.165346 19.1528 -0.111203 18.489 0.218366C18.3856 0.269667 16.9586 1.66601 14.3503 4.26822L10.3693 8.23982L6.38835 4.26822C3.77997 1.66601 2.35301 0.269667 2.24964 0.218366C2.11724 0.152648 1.68237 0.0446926 1.60791 0.0591101C1.59575 0.0614544 1.50885 0.0784505 1.41487 0.0969314Z" fill="white"/>
</svg>
