<svg width="25" height="24" viewBox="0 0 25 24" fill="none" xmlns="http://www.w3.org/2000/svg">
<path fill-rule="evenodd" clip-rule="evenodd" d="M13.1162 5.62541C7.0529 2.72946 1.96487 0.303246 1.80952 0.233801C1.44352 0.0702188 1.0803 0.115873 0.780532 0.363089C0.521227 0.576955 0.364118 0.960061 0.421946 1.23771C0.463099 1.43507 3.83334 10.7148 3.88135 10.7629C3.89922 10.7807 5.37884 10.797 7.16945 10.7991C10.0262 10.8024 10.4486 10.8192 10.6172 10.9359C11.0186 11.2137 11.1498 11.933 10.8729 12.3377C10.6117 12.7196 10.5308 12.728 7.1316 12.7267C5.36289 12.726 3.90017 12.741 3.88113 12.76C3.83214 12.809 0.463526 22.0856 0.421516 22.2872C0.372176 22.5241 0.515913 22.9154 0.73145 23.131C0.973094 23.3726 1.35324 23.4456 1.70887 23.3185C1.85784 23.2653 6.97891 20.8297 13.0891 17.906C20.7294 14.2503 24.2523 12.5365 24.3709 12.4179C24.7126 12.0762 24.6985 11.4259 24.3418 11.084C24.1943 10.9424 21.1963 9.48464 13.1162 5.62541Z" fill="#E22678" fill-opacity="0.6"/>
</svg>
